HIERARCHY
ROOT reference
{
  OFFSET 0 0 0
  CHANNELS 6 Xposition Yposition Zposition Zrotation Xrotation Yrotation
  JOINT Hips
  {
    OFFSET 17.3603 39.9937 -8.51984
    CHANNELS 3 Zrotation Xrotation Yrotation
    JOINT LeftHip
    {
      OFFSET 3.43 -7.10543e-015 4.44089e-015
      CHANNELS 3 Zrotation Xrotation Yrotation
      JOINT LeftKnee
      {
        OFFSET 2.30926e-013 -18.47 -2.77556e-013
        CHANNELS 3 Zrotation Xrotation Yrotation
        JOINT LeftAnkle
        {
          OFFSET 8.25651e-012 -17.95 -2.46181e-012
          CHANNELS 3 Zrotation Xrotation Yrotation
          End Site
          {
            OFFSET 0 -3.12 0
          }
        }
      }
    }
    JOINT RightHip
    {
      OFFSET -3.43 -7.10543e-015 8.88178e-016
      CHANNELS 3 Zrotation Xrotation Yrotation
      JOINT RightKnee
      {
        OFFSET -5.32907e-014 -18.47 -1.76748e-013
        CHANNELS 3 Zrotation Xrotation Yrotation
        JOINT RightAnkle
        {
          OFFSET -3.74634e-012 -17.95 -2.0588e-012
          CHANNELS 3 Zrotation Xrotation Yrotation
          End Site
          {
            OFFSET 0 -3.12 0
          }
        }
      }
    }
    JOINT Chest
    {
      OFFSET 7.10543e-015 4.57 8.88178e-015
      CHANNELS 3 Zrotation Xrotation Yrotation
      JOINT Chest2
      {
        OFFSET -3.55271e-015 6.57 2.66454e-015
        CHANNELS 3 Zrotation Xrotation Yrotation
        JOINT LeftCollar
        {
          OFFSET 1.06 4.19 1.76
          CHANNELS 3 Zrotation Xrotation Yrotation
          JOINT LeftShoulder
          {
            OFFSET 5.81 -7.10543e-015 -3.10862e-015
            CHANNELS 3 Zrotation Xrotation Yrotation
            JOINT LeftElbow
            {
              OFFSET 2.55795e-013 -12.08 8.52651e-014
              CHANNELS 3 Zrotation Xrotation Yrotation
              JOINT LeftWrist
              {
                OFFSET 1.20792e-012 -9.82 4.9738e-014
                CHANNELS 3 Zrotation Xrotation Yrotation
                End Site
                {
                  OFFSET 0 -7.37 0
                }
              }
            }
          }
        }
        JOINT RightCollar
        {
          OFFSET -1.06 4.19 1.76
          CHANNELS 3 Zrotation Xrotation Yrotation
          JOINT RightShoulder
          {
            OFFSET -6.06 -3.55271e-014 3.10862e-015
            CHANNELS 3 Zrotation Xrotation Yrotation
            JOINT RightElbow
            {
              OFFSET -6.39488e-014 -11.08 -3.41949e-014
              CHANNELS 3 Zrotation Xrotation Yrotation
              JOINT RightWrist
              {
                OFFSET -3.41061e-013 -9.82 -2.26041e-013
                CHANNELS 3 Zrotation Xrotation Yrotation
                End Site
                {
                  OFFSET 0 -7.14001 0
                }
              }
            }
          }
        }
        JOINT Neck
        {
          OFFSET 0 4.05 -5.77316e-015
          CHANNELS 3 Zrotation Xrotation Yrotation
          JOINT Head
          {
            OFFSET 7.10543e-015 5.19 -7.10543e-015
            CHANNELS 3 Zrotation Xrotation Yrotation
            End Site
            {
              OFFSET 0 4.14001 0
            }
          }
        }
      }
    }
  }
}
MOTION
Frames:	22
Frame Time:	0.0333333
0 0 0 0 0 0 -0.0429957 -4.46893 -0.0313649 2.24412 -1.62273 1.94013 0.630754 12.3898 17.0911 -1.55761 -5.17673 -0.0704179 0.342037 -1.13222 -1.49452 -0.916834 10.9574 -19.359 2.22299 -3.49713 0.0678711 0.476149 -0.700109 -0.326513 0.8485 -3.58446 -0.908581 9.77627 0.122292 2.93167 88.1398 3.9367 19.6997 -0.776136 -10.149 -0.13677 -0.208674 5.68266 -15.109 -10.7649 0.428526 -2.83821 -88.7744 4.82075 -4.06357 1.71345 -4.45278e-014 -2.38542e-015 -30.4307 -17.7078 -5.69478 -1.20502 14.4063 0.386881 0.110155 -3.06935 0.35212 
0 0 0 0 0 0 0.00450663 -4.52133 -0.0186707 2.19396 -1.92041 1.93765 0.569455 12.9648 17.2491 -1.34709 -5.40387 -0.0635758 0.280275 -1.13253 -1.53001 -0.928663 10.9741 -19.2034 2.21841 -3.50473 0.0678788 0.451297 -0.724092 -0.313593 0.779329 -3.61949 -0.904907 9.65749 0.132095 3.24737 88.1758 3.29304 20.2773 -0.59048 -10.104 -0.103595 -0.211756 5.8652 -15.9428 -10.8193 0.416636 -2.57782 -88.58 5.11428 -4.39558 1.53823 -1.97091e-007 -2.11552e-005 -29.6573 -18.1515 -5.56202 -1.26207 14.6643 0.514938 0.626604 -3.36362 0.33206 
0 0 0 0 0 0 0.0396676 -4.53001 0.0234555 2.17294 -2.17974 1.95071 0.555989 13.3919 17.3806 -1.27778 -5.5495 -0.0619321 0.259037 -1.14306 -1.53804 -0.924385 10.901 -19.5926 2.20516 -3.50225 0.0674253 0.434165 -0.723739 -0.317167 0.799683 -3.62016 -0.904733 9.58644 0.131976 3.29474 88.2616 3.20872 20.3082 -0.613542 -10.3294 -0.110016 -0.381554 6.06324 -15.7631 -10.8009 0.423469 -2.72083 -88.4354 4.98737 -4.96822 1.29185 -4.58104e-007 -6.76967e-005 -29.1764 -17.9389 -5.1921 -1.19934 14.4851 0.502321 0.579545 -2.92523 0.360796 
0 0 0 0 0 0 -0.0383003 -4.56515 0.117935 2.28665 -2.12432 2.00492 0.570338 13.3358 17.0703 -1.36061 -5.52496 -0.065655 0.332103 -1.11554 -1.54724 -0.859845 10.9767 -19.4448 2.1658 -3.54071 0.0669493 0.528405 -0.740407 -0.324746 0.905062 -3.62902 -0.906056 9.34609 0.117554 3.09725 88.3277 3.23865 20.4002 -0.551696 -10.3767 -0.0993737 -0.477537 6.08252 -15.7522 -11.0408 0.429162 -2.72046 -88.2244 5.06762 -4.67467 1.3982 -6.87156e-007 -0.000114238 -29.4841 -17.8923 -5.30184 -1.32101 14.6699 0.494879 0.546129 -3.21798 0.302128 
0 0 0 0 0 0 0.0151793 -4.6421 0.154381 2.20316 -1.69423 1.95702 0.599814 12.6634 17.155 -1.52107 -5.21079 -0.0692189 0.255066 -1.09619 -1.61383 -0.857553 11.0724 -19.4887 2.1972 -3.55918 0.0682745 0.513572 -0.688011 -0.287149 0.894581 -3.56717 -0.842613 9.13855 0.111779 3.09294 88.5374 2.98677 20.4013 -0.708703 -10.2177 -0.125722 -0.548626 6.07375 -15.5164 -11.0322 0.435681 -2.84801 -88.1995 5.03289 -4.5166 1.48232 -7.88365e-007 -0.000135393 -29.6068 -17.7519 -5.33429 -1.27295 14.6514 0.370592 0.333531 -3.33722 0.232616 
0 0 0 0 0 0 0.0590232 -4.64043 0.217832 2.16162 -2.22022 1.93831 0.546659 13.5503 17.3089 -1.30768 -5.56882 -0.0636021 0.212193 -1.17523 -1.65321 -0.889587 11.0614 -19.9911 2.2376 -3.55253 0.0694005 0.506029 -0.700149 -0.320356 0.837233 -3.57692 -0.890393 9.0049 0.110573 3.16172 88.6847 2.86321 20.4519 -0.748827 -10.1824 -0.132387 -0.428155 6.0873 -15.733 -11.0367 0.431251 -2.7619 -88.0797 5.0851 -4.63985 1.40639 -6.65848e-007 -0.000105776 -29.7303 -18.0074 -4.93319 -1.27867 14.6462 0.364641 0.325377 -3.22132 0.217098 
0 0 0 0 0 0 0.0936796 -4.63247 0.295049 2.14456 -2.256 1.9073 0.598315 13.5936 17.0765 -1.32514 -5.58201 -0.0646044 0.232216 -1.1349 -1.61802 -0.901166 10.9704 -20.0331 2.19672 -3.57615 0.0685852 0.461348 -0.747337 -0.331792 0.838787 -3.62742 -0.918652 8.99232 0.106869 3.0655 88.6742 2.824 20.536 -0.704911 -10.1701 -0.124473 -0.561639 6.13089 -15.7488 -10.9238 0.428824 -2.76775 -88.2798 5.12496 -4.41478 1.49687 2.29e-013 -1.98785e-015 -29.5827 -17.8205 -5.48098 -1.29669 14.6908 0.427618 0.506564 -2.96996 0.230539 
0 0 0 0 0 0 0.0971229 -4.73065 0.293238 2.15675 -1.70971 1.92774 0.650351 12.8028 16.8841 -1.52224 -5.2429 -0.0696996 0.245711 -0.987101 -1.6213 -0.892136 10.9916 -19.7582 2.17516 -3.6035 0.0684318 0.440126 -0.689671 -0.325619 0.874237 -3.52872 -0.915164 8.88356 0.10346 3.05089 88.809 2.84599 20.4783 -0.82206 -10.4053 -0.148482 -0.645489 6.29008 -15.7389 -10.8558 0.425925 -2.74328 -88.2739 5.1579 -4.56118 1.42327 -0.012261 0.000304635 -29.1898 -17.8205 -5.4657 -1.21604 14.6329 0.415299 0.424194 -3.01327 0.276498 
0 0 0 0 0 0 0.0526166 -4.76967 0.319949 2.16475 -1.99517 1.90017 0.64192 13.3913 17.0478 -1.37916 -5.50252 -0.0662795 0.238062 -0.99477 -1.68092 -0.867387 11.1235 -19.5368 2.2061 -3.64161 0.0701399 0.517097 -0.672769 -0.333811 0.849255 -3.51403 -0.91758 8.88499 0.103196 3.04199 88.755 2.86842 20.314 -0.901777 -10.4185 -0.163088 -0.563055 6.30128 -15.6838 -10.6843 0.423514 -2.77761 -88.4644 5.10056 -4.33612 1.52806 1.99602e-007 -5.32457e-009 -29.4454 -17.7715 -5.24165 -1.22828 14.6268 0.407327 0.364174 -2.94822 0.27799 
0 0 0 0 0 0 0.0206727 -4.74527 0.291499 2.21919 -2.27058 1.93957 0.612783 13.789 17.2674 -1.3536 -5.62938 -0.066553 0.281858 -1.04236 -1.65776 -0.856612 11.094 -19.6996 2.18039 -3.64357 0.0693597 0.52495 -0.669708 -0.302232 0.838 -3.51349 -0.867121 9.06692 0.109018 3.06971 88.6083 2.83287 20.1405 -1.00963 -10.4072 -0.182401 -0.39935 6.24064 -15.3936 -10.4153 0.423597 -2.9175 -88.6756 4.97908 -4.39184 1.54064 2.62396e-013 -7.35503e-015 -29.3441 -17.9266 -5.34462 -1.0869 14.5789 0.281734 0.204531 -2.99108 0.254617 
0 0 0 0 0 0 0.0271747 -4.78424 0.311437 2.2357 -2.10011 1.95891 0.61158 13.5356 17.1227 -1.34075 -5.51605 -0.0645919 0.278141 -0.991781 -1.67594 -0.836768 11.0593 -19.6122 2.14426 -3.58411 0.0670964 0.50141 -0.641709 -0.325321 0.824221 -3.49184 -0.899873 9.03928 0.108066 3.06377 88.5796 2.88739 20.2376 -0.92149 -10.3779 -0.16601 -0.352203 6.02615 -15.4899 -10.3786 0.422203 -2.90778 -88.6629 4.85965 -4.51574 1.53234 -8.50372e-008 -6.13205e-006 -29.2723 -17.9411 -5.10148 -1.10227 14.4593 0.384847 0.35229 -2.59005 0.323985 
0 0 0 0 0 0 0.0189731 -4.69237 0.326731 2.34434 -1.90527 2.04671 0.597776 12.9899 16.7444 -1.48404 -5.26484 -0.0682349 0.362685 -1.06365 -1.58648 -0.823358 10.9626 -19.8471 2.06388 -3.52304 0.0634794 0.435885 -0.700776 -0.336561 0.842511 -3.56852 -0.942164 9.08874 0.109469 3.06597 88.6217 2.97736 20.0936 -1.02406 -10.4561 -0.185869 -0.334665 6.20327 -15.4809 -10.3582 0.415778 -2.78164 -88.5883 4.95937 -4.41189 1.55696 -1.4291e-007 -2.2646e-005 -29.3515 -17.9579 -5.44049 -1.02436 14.6627 0.330916 0.268487 -3.00826 0.32497 
0 0 0 0 0 0 0.029433 -4.68011 0.302297 2.32534 -2.06675 2.02161 0.595961 13.2179 16.9186 -1.45604 -5.33136 -0.0677949 0.333734 -1.12979 -1.62685 -0.781249 11.0295 -19.762 2.03172 -3.57102 0.0633416 0.436294 -0.691915 -0.319555 0.819494 -3.57085 -0.909294 8.96836 0.106636 3.07727 88.7601 3.02165 20.1874 -0.949818 -10.4594 -0.172444 -0.705831 6.15242 -15.4408 -10.4131 0.416253 -2.76341 -88.5112 4.98136 -4.41912 1.55002 -1.77162e-007 -4.67105e-005 -29.2761 -17.9667 -5.32953 -1.06343 14.6797 0.317331 0.226426 -3.06505 0.291224 
0 0 0 0 0 0 0.0220864 -4.63635 0.385653 2.323 -2.31193 2.00852 0.594982 13.5259 16.9317 -1.41106 -5.44034 -0.067045 0.312545 -1.15507 -1.64747 -0.767439 10.9722 -19.8873 2.04728 -3.57431 0.0638858 0.450878 -0.710021 -0.328141 0.798492 -3.59147 -0.933379 9.18803 0.112161 3.06682 88.5292 2.99625 20.2314 -0.912626 -10.4119 -0.164947 -0.777584 6.25661 -15.8915 -10.2356 0.417624 -2.88719 -88.7151 4.90534 -4.14001 1.67338 -1.91335e-007 -7.54942e-005 -29.498 -17.9437 -5.24194 -0.921862 14.6158 0.291953 0.112681 -2.87636 0.37381 
0 0 0 0 0 0 0.0545336 -4.56694 0.416078 2.31189 -2.26723 1.98793 0.616824 13.287 16.7021 -1.45503 -5.3241 -0.0676551 0.305539 -1.23291 -1.63811 -0.74322 10.9586 -20.0192 2.00665 -3.57319 0.0625981 0.412514 -0.740299 -0.338686 0.806884 -3.63832 -0.94837 8.96217 0.108197 3.12719 88.8048 2.91415 20.2542 -1.00762 -10.2575 -0.179448 -0.593925 6.03319 -15.3107 -10.3276 0.417054 -2.82504 -88.5581 4.97114 -4.3249 1.58544 -1.88973e-007 -0.000106166 -29.3528 -18.0918 -5.18739 -0.999922 14.5909 0.392024 0.233875 -2.73016 0.405905 
0 0 0 0 0 0 0.0638007 -4.59181 0.453029 2.27689 -2.38273 1.93881 0.645962 13.5217 16.842 -1.42968 -5.40601 -0.0675009 0.298153 -1.22425 -1.66235 -0.74408 10.9721 -19.9705 2.00091 -3.59713 0.0628373 0.409498 -0.711597 -0.350418 0.777363 -3.59125 -0.969001 9.03662 0.110584 3.13718 88.6766 2.99327 20.2743 -0.916244 -10.3864 -0.165199 -0.812918 6.18801 -14.9356 -10.3174 0.411963 -2.72089 -88.5219 5.09564 -4.44207 1.51205 -1.7362e-007 -0.000135894 -29.3473 -17.8979 -5.42682 -1.04041 14.7209 0.389008 0.24787 -3.01182 0.378591 
0 0 0 0 0 0 0.0498192 -4.5476 0.482983 2.24141 -2.37905 1.84923 0.709611 13.4165 16.8713 -1.41892 -5.34633 -0.0662519 0.308187 -1.26855 -1.65973 -0.754925 10.9769 -19.8805 2.01101 -3.53384 0.0620428 0.429102 -0.708153 -0.352067 0.756284 -3.574 -0.957066 9.03208 0.110593 3.14098 88.5607 3.0768 20.2262 -0.850793 -10.5412 -0.155657 -0.634316 6.3759 -15.055 -10.3221 0.41475 -2.77841 -88.4541 5.06755 -4.47926 1.51003 -1.48818e-007 -0.000161848 -29.0635 -17.7945 -5.64013 -1.08655 14.6647 0.440162 0.306114 -3.03031 0.38854 
0 0 0 0 0 0 0.0802833 -4.58492 0.504756 2.30465 -2.17879 1.95863 0.643275 13.1085 16.6689 -1.43319 -5.21077 -0.0652194 0.318728 -1.24095 -1.64812 -0.743584 10.9895 -19.9376 1.97055 -3.53587 0.0608292 0.366149 -0.646351 -0.316091 0.752431 -3.49974 -0.91834 9.12435 0.110561 3.06978 88.5563 3.00722 20.2847 -0.895443 -10.3122 -0.160308 -0.586668 6.13248 -15.495 -10.1501 0.4162 -2.90351 -88.4815 5.05166 -4.64216 1.42662 -1.1811e-007 -0.000181195 -29.0264 -17.9782 -5.46848 -0.886204 14.662 0.352223 -0.102187 -3.17857 0.47319 
0 0 0 0 0 0 0.0828375 -4.51704 0.587065 2.34006 -2.1977 1.98056 0.657241 12.9805 16.5031 -1.53919 -5.1324 -0.0689884 0.37226 -1.32624 -1.59856 -0.742885 11.0535 -20.0345 1.95153 -3.61547 0.0615991 0.33834 -0.669031 -0.343207 0.788913 -3.51096 -0.953472 8.88085 0.106461 3.14152 88.8741 2.91731 20.1811 -1.07195 -10.1943 -0.189742 -0.690753 6.06704 -15.2971 -10.3433 0.421172 -2.90492 -88.2116 5.02702 -4.52586 1.46482 -8.504e-008 -0.000191106 -29.2928 -17.7249 -5.59947 -0.970834 14.6758 0.411966 -0.0512381 -3.12297 0.475065 
0 0 0 0 0 0 0.0946938 -4.53341 0.586557 2.27619 -2.42539 1.91381 0.643775 13.3755 16.8286 -1.43925 -5.27548 -0.0663097 0.289636 -1.29445 -1.67814 -0.731197 10.9708 -19.9214 1.96685 -3.59834 0.0617883 0.37148 -0.632755 -0.323863 0.720456 -3.47432 -0.916521 8.95164 0.110362 3.19823 88.7654 2.75784 20.1935 -1.1075 -10.1628 -0.195437 -0.629954 6.0367 -15.4723 -10.2263 0.419134 -2.9254 -88.2211 4.96878 -4.76193 1.3793 -5.3151e-008 -0.000188747 -29.1621 -17.781 -5.40364 -1.01151 14.5624 0.408163 0.197236 -2.88529 0.410262 
0 0 0 0 0 0 0.0660163 -4.48253 0.640893 2.36061 -2.41343 1.97101 0.618844 13.2244 16.6365 -1.45331 -5.19578 -0.0659443 0.358082 -1.26123 -1.61183 -0.709271 10.7791 -19.976 1.88898 -3.5157 0.0579779 0.370643 -0.650809 -0.310924 0.771826 -3.5151 -0.899475 9.02679 0.11133 3.16605 88.5458 2.73867 20.1113 -1.16093 -10.3782 -0.209163 -0.326131 6.00346 -15.0845 -10.2904 0.422404 -2.96064 -88.1381 4.97598 -4.74554 1.38905 -2.59861e-008 -0.000171289 -29.1638 -17.8148 -5.41365 -1.04041 14.5344 0.414766 0.263591 -2.72569 0.396411 
0 0 0 0 0 0 0.126241 -4.43706 0.642358 2.27693 -2.40503 1.88698 0.632302 13.1188 16.6278 -1.44051 -5.1492 -0.0647766 0.325332 -1.41219 -1.62017 -0.750833 10.9222 -20.2082 1.92998 -3.52932 0.0594662 0.318031 -0.660786 -0.293394 0.692035 -3.52756 -0.8641 8.97567 0.107585 3.09893 88.4773 2.82136 20.241 -0.980011 -10.5402 -0.179285 -0.595476 6.06451 -15.3845 -10.3055 0.421587 -2.93462 -87.9957 4.97249 -4.84694 1.34264 -7.08842e-009 -0.000135899 -28.9877 -17.8261 -5.16264 -0.996298 14.6134 0.364282 0.237672 -2.91385 0.355422 
